<svg xmlns="http://www.w3.org/2000/svg" width="63" height="61.426"><path d="M21.072 49.46c0 .254-.292.457-.66.457-.419.038-.711-.165-.711-.457 0-.254.292-.457.66-.457.381-.038.711.165.711.457zm-3.95-.572c-.089.254.165.546.546.622a.6.6 0 00.788-.254c.076-.254-.165-.546-.546-.66a.652.652 0 00-.788.292zm5.614-.216c-.368.089-.622.33-.584.622.038.254.368.419.749.33s.622-.33.584-.584-.385-.406-.749-.367zM31.094 0C13.476 0 0 13.375 0 30.992a31.844 31.844 0 0021.529 30.382c1.626.292 2.2-.711 2.2-1.537 0-.787-.038-5.131-.038-7.8 0 0-8.891 1.905-10.758-3.785 0 0-1.448-3.7-3.531-4.649 0 0-2.909-1.994.2-1.956a6.7 6.7 0 014.9 3.277c2.782 4.9 7.443 3.493 9.259 2.655A7.059 7.059 0 0125.8 43.3c-7.1-.788-14.264-1.816-14.264-14.035a9.626 9.626 0 013-7.481 12 12 0 01.33-8.624c2.655-.826 8.764 3.429 8.764 3.429a30.006 30.006 0 0115.953 0s6.109-4.268 8.764-3.429a12 12 0 01.33 8.624c2.032 2.248 3.277 4 3.277 7.481 0 12.257-7.481 13.235-14.581 14.035 1.169 1 2.159 2.909 2.159 5.894 0 4.28-.038 9.577-.038 10.619 0 .826.584 1.829 2.2 1.537C54.388 57.132 63 45.078 63 30.992 63 13.375 48.711 0 31.094 0zM12.346 43.808c-.165.127-.127.419.089.66.2.2.5.292.66.127.165-.127.127-.419-.089-.66-.206-.203-.495-.292-.66-.127zm-1.372-1.029c-.089.165.038.368.292.5a.378.378 0 00.546-.089c.089-.165-.038-.368-.292-.5-.254-.076-.457-.038-.546.089zM15.09 47.3c-.2.165-.127.546.165.788.292.292.66.33.826.127.165-.165.089-.546-.165-.787-.28-.292-.661-.328-.826-.128zm-1.448-1.867c-.2.127-.2.457 0 .749s.546.419.711.292a.579.579 0 000-.787c-.178-.292-.508-.419-.711-.254z" fill="#212121"/></svg>