<svg xmlns="http://www.w3.org/2000/svg" width="63" height="63"><path d="M31.5 0A31.5 31.5 0 1063 31.5 31.5 31.5 0 0031.5 0zm15.671 24.428q.024.5.024 1c0 10.249-7.8 22.066-22.066 22.066a21.949 21.949 0 01-11.887-3.485 15.943 15.943 0 001.851.11 15.562 15.562 0 009.631-3.319 7.768 7.768 0 01-7.245-5.387 7.817 7.817 0 003.5-.134 7.76 7.76 0 01-6.221-7.6v-.1a7.743 7.743 0 003.512.973 7.767 7.767 0 01-2.4-10.352 22.01 22.01 0 0015.986 8.1 7.762 7.762 0 0113.218-7.072A15.631 15.631 0 0050 17.353a7.777 7.777 0 01-3.41 4.292 15.51 15.51 0 004.453-1.221 15.676 15.676 0 01-3.872 4.004z" fill="#212121"/></svg>